<svg id="Layer_1" data-name="Layer 1" xmlns="http://www.w3.org/2000/svg" viewBox="0 0 445.31 146.92"><defs><style>.cls-1{fill:#ed2224;}.cls-2{fill:#ed2225;}.cls-3{fill:#bb7f2b;}.cls-4{fill:#bc802d;}.cls-5{fill:#be8435;}.cls-6{fill:#bc802f;}.cls-7{fill:#be8436;}.cls-8{fill:#be8538;}.cls-9{fill:#bd8233;}.cls-10{fill:#bc812e;}.cls-11{fill:#bd8231;}.cls-12{fill:#be8437;}.cls-13{fill:#be8434;}.cls-14{fill:#ba7a2b;}.cls-15{fill:#bd8230;}.cls-16{fill:#b5712a;}.cls-17{fill:#bc812f;}.cls-18{fill:#bf8637;}.cls-19{fill:#ba7c2b;}.cls-20{fill:#bf8739;}.cls-21{fill:#bd8232;}.cls-22{fill:#bf8638;}.cls-23{fill:#bd8130;}.cls-24{fill:#be8535;}.cls-25{fill:#bb7e2e;}.cls-26{fill:#c38e41;}.cls-27{fill:#bd8334;}.cls-28{fill:#ba7b2d;}.cls-29{fill:#bf863a;}.cls-30{fill:#b7752a;}.cls-31{fill:#b8762a;}.cls-32{fill:#c0883b;}.cls-33{fill:#c38f48;}.cls-34{fill:#b57029;}.cls-35{fill:#bf8537;}.cls-36{fill:#c48f4c;}.cls-37{fill:#bc812c;}.cls-38{fill:#c38e4a;}.cls-39{fill:#b7742a;}.cls-40{fill:#b9782b;}.cls-41{fill:#c28d42;}.cls-42{fill:#bf8636;}.cls-43{fill:#fff;}.cls-44{fill:#bc822e;}</style></defs><path class="cls-1" d="M388.76,321.07c-6,23.38-12.12,46.72-17.76,70.18-1.17,4.86-3.78,5.53-7.89,6.08-38.78,5.17-77.25,11.8-114.28,24.88-8.57,3-17,6.39-26.19,9.86.88-9.2,3.5-17.56,6.42-25.82,13.87-39.37,42.31-62.32,82.26-72.77a424.43,424.43,0,0,1,61.52-11.05C374.05,322.3,384.57,321.07,388.76,321.07Z" transform="translate(-222.23 -317.54)"/><path class="cls-1" d="M667.53,321q-17.22,34.44-34.44,68.86Q615.38,425.36,597.8,461c-1.23,2.51-2.48,3.55-5.43,3.51-13.35-.19-26.7-.14-40,0-2.72,0-4.19-.19-3.69-3.63,1.07-7.47,1.69-15,2.51-22.67,1.14-.8,1.92.35,2.71,1,3,2.31,4.42,1,5.14-2,1.74-7.33,3.52-14.66,5.14-22,1.3-5.88,2.66-11.78,3.46-17.74.39-3,1.5-3.59,4.25-3.57,13,.13,25.94.09,38.91,0,1.32,0,3.21.94,3.93-1.06a4,4,0,0,0-1.11-4.16,32.26,32.26,0,0,1-2.74-3.63c-3.44-5.29-7.24-9.89-15.78-7.49,2.81-5.92,5.09-10.78,7.41-15.61,6.14-12.75,12.4-25.45,18.37-38.29,1.35-2.88,3-3.73,6.08-3.69,13.54.17,27.08.08,40.62.08Z" transform="translate(-222.23 -317.54)"/><path class="cls-1" d="M550.2,393.89C538.65,414,527,433,516.77,452.71c-4.5,8.68-9.66,12-19.26,10.87-8.08-.92-16.35-.32-24.53-.12-3.23.07-4.6-.46-4.66-4.2-.35-19.48-1-39-1.7-58.43-.13-3.53.53-4.7,4.45-4.92C497.08,394.45,523.1,393.44,550.2,393.89Z" transform="translate(-222.23 -317.54)"/><path class="cls-1" d="M376.91,462.14c4.94-18.45,9.76-36.45,14.55-54.46.48-1.83.56-3.57,3.22-3.89C409.92,402,425.13,400,440.8,398c-5.48,20.8-10.77,40.8-16,60.82-.69,2.65-2.1,3.43-4.83,3.4C405.88,462.06,391.78,462.14,376.91,462.14Z" transform="translate(-222.23 -317.54)"/><path class="cls-1" d="M552.79,330.77c0,14.48-.15,28.78.09,43.08.07,4.12-.91,5.54-5.33,5.4-11-.35-21.95-.12-33.24-.12,6.07-10.83,12.3-22,18.56-33.14,4.07-7.25,8.26-14.43,12.26-21.72,1.29-2.37,2.66-3.68,5.68-3.63q15.72.32,31.45,0c3.37-.07,4,1.12,4,4.2q-.19,23.88,0,47.76c0,3.18-.84,4-4.08,4.25-5.84.52-9-1-11.22-7-4.58-12.37-10.28-24.33-15.51-36.47C555.05,332.44,555.07,331.16,552.79,330.77Z" transform="translate(-222.23 -317.54)"/><path class="cls-1" d="M508.43,376.66c0,2.49-1.43,3.66-4.38,3.92-11.95,1.05-23.93,1.58-35.91,2.12-2.56.12-3.2-.73-3.24-3.15q-.45-27.29-1.18-54.56c-.08-2.83.55-4,3.7-4,12.58.09,25.17,0,37.75-.2,2.39,0,3.31.53,3.26,3.14C508.26,332.87,508.32,368,508.43,376.66Z" transform="translate(-222.23 -317.54)"/><path class="cls-1" d="M333.3,462.14c-6.28,0-12.56-.12-18.83.05-2.65.07-3.25-1-3-3.31,1.6-13.26,3.13-26.54,4.76-39.8.27-2.18,1.26-3.41,3.93-3.84,14.37-2.31,28.68-5,43-7.45,2.19-.38,4.33-.58,3.53,2.95q-5.5,24.48-10.84,49c-.57,2.66-2.43,2.4-4.35,2.39Z" transform="translate(-222.23 -317.54)"/><path class="cls-2" d="M245.64,463c-6.1,0-12.2-.16-18.29.06-3.47.13-5-.52-5-4.54-.28-16-.49-16.12,14.73-21.36,9.83-3.39,19.87-6.17,29.75-9.44,2.81-.93,3.94-.64,3.44,2.45-1.54,9.59-.79,19.28-1.25,28.91-.16,3.43-1.45,4.06-4.47,4C258.21,462.87,251.92,463,245.64,463Z" transform="translate(-222.23 -317.54)"/><path class="cls-3" d="M452.59,347.78c-.76-5.27,3.47-5,5.89-5,3.79.11,2.14,4,2.77,6.22.9,3.12-1.49,3.15-3.79,3C454.39,351.93,451.47,351.79,452.59,347.78Z" transform="translate(-222.23 -317.54)"/><path class="cls-4" d="M455.66,354.86c1.18,1.17,5-1.58,4.59,2.37-.27,2.31-.08,6.16-3.5,6.28-1.64.05-5.57-.22-5.31-3.44C451.6,358.12,451,354.23,455.66,354.86Z" transform="translate(-222.23 -317.54)"/><path class="cls-5" d="M396.43,342.82c-.07,2.15-.2,4.9-3.93,3.93-1.38-.35-4.46.64-3.52-2.7.59-2.07-.25-5.5,3-5.47C393.59,338.59,397.59,338.23,396.43,342.82Z" transform="translate(-222.23 -317.54)"/><path class="cls-4" d="M417.26,364.18c-2.87.82-4.59-.58-4.71-3.54-.16-3.74,3-2.08,4.42-1.93,1.62.17,4.79-2.2,4.83,2.28C421.84,364.56,419.88,364.43,417.26,364.18Z" transform="translate(-222.23 -317.54)"/><path class="cls-6" d="M418.45,335.52c2.44.59,5.56-.64,5.45,3.46-.06,2.53-1.57,3.07-3.22,2.32-2.06-.94-5.79.82-6.07-3C414.42,335.76,416.19,334.72,418.45,335.52Z" transform="translate(-222.23 -317.54)"/><path class="cls-7" d="M432.36,342.16c-1.91-1.11-5,1.21-5.18-2.26-.23-4.12,3.15-2.74,5.27-2.75s5.09-1.12,4.88,2.63C437.1,343.83,433.57,340.48,432.36,342.16Z" transform="translate(-222.23 -317.54)"/><path class="cls-8" d="M418.3,348.86c-1.62-1.24-5.12,1.54-5.73-2.15-.33-2,1.26-3.81,3.61-2.6s6.49-1.14,7,2.77C423.58,350.48,420.3,348.5,418.3,348.86Z" transform="translate(-222.23 -317.54)"/><path class="cls-9" d="M432.58,345.61c1.77.77,5-1.48,5.08,2.59,0,2.2-1.52,2.65-3,2.14-2.77-.93-7.57,1.08-8-2.64C426.18,344.37,430.47,346.37,432.58,345.61Z" transform="translate(-222.23 -317.54)"/><path class="cls-10" d="M405.68,364.19c-3.31.84-4.07-1.05-4.1-3-.05-3,2.75-2.15,4.45-2.57,2.92-.73,2.78,1.45,3,3.34C409.34,365.55,406.34,363.54,405.68,364.19Z" transform="translate(-222.23 -317.54)"/><path class="cls-11" d="M434.93,363.05c-1.49,1.6-8.72,2.25-9.52.64s-.75-3.86,1.88-4.08a9.41,9.41,0,0,1,6,1,6.41,6.41,0,0,1-1.36,1.08C432.15,361.93,434.41,360.92,434.93,363.05Z" transform="translate(-222.23 -317.54)"/><path class="cls-12" d="M455,334.6a3,3,0,0,1,3.72,3.35c-.4,2.21-3.18,1.83-5,2.25-2.59.59-2.74-1.68-2.71-3.21C451,334.23,453.69,335.22,455,334.6Z" transform="translate(-222.23 -317.54)"/><path class="cls-13" d="M437.26,354.79c-.34,1.22-.49,2.63-2.45,2.12-.89-.23-1.83-.31-2.73-.56-2.05-.57-4.64.24-6-2.09a1.15,1.15,0,0,1,1.07-1.58c3.31,0,6.68-.38,9.84,1C437.21,353.79,437.17,354.38,437.26,354.79Z" transform="translate(-222.23 -317.54)"/><path class="cls-14" d="M389.41,349.6c2-.17,4.33-1.09,5.57.88a3.88,3.88,0,0,1-.46,4.67c-1.56,1.49-3.4,2-5.26.29A7.72,7.72,0,0,1,389.41,349.6Z" transform="translate(-222.23 -317.54)"/><path class="cls-15" d="M407.35,338.7c-1-1.23-4.45.77-3.83-2.41.29-1.49.84-4.53,4-3.08,1.42.66,4.34-.48,3.66,2.81C410.79,338,410.15,339.79,407.35,338.7Z" transform="translate(-222.23 -317.54)"/><path class="cls-16" d="M416.84,351.43c1.59,1.39,5.92-1.54,5.4,2.29-.42,3.14-4.48.86-6.86,1.34-1.29.27-3.33.66-3.08-1.91C412.64,349.65,415.19,352.07,416.84,351.43Z" transform="translate(-222.23 -317.54)"/><path class="cls-7" d="M394.36,366.1c-2.64-.6-3.35-2.71-3.61-4.55-.37-2.51,2-1.52,3.23-1.73,3.18-.56,3.09,2.13,3.42,3.95C397.89,366.44,395.09,364.77,394.36,366.1Z" transform="translate(-222.23 -317.54)"/><path class="cls-15" d="M400.52,331.77c-.69,2.67-2.31,3.87-4.49,4-1.42.08-3.51-.19-3.1-2.2.35-1.65,1.18-3.78,3.62-3.65C398.16,330,399.74,330.43,400.52,331.77Z" transform="translate(-222.23 -317.54)"/><path class="cls-17" d="M455.63,368.27c-1.09,1.32-1.77,3.52-3.8,2.64-1.39-.6-4.36-.09-3.77-3,.3-1.46,1-3.54,3.39-2.6C453,366,455.21,366,455.63,368.27Z" transform="translate(-222.23 -317.54)"/><path class="cls-18" d="M432.76,333.73c-2-.52-4.44.65-4.67-2.3-.21-2.56,1.62-2.33,3.36-2.34,2.05,0,3.72.26,4,2.76C435.84,335,433.2,332.63,432.76,333.73Z" transform="translate(-222.23 -317.54)"/><path class="cls-3" d="M447.48,354.25c-1.52,1.65,1.06,5.86-3.32,5.28-1.6-.22-4.05-.91-3.26-3.6C442.1,351.8,445.24,354.94,447.48,354.25Z" transform="translate(-222.23 -317.54)"/><path class="cls-19" d="M400.93,346c-.07-1.63-.69-4,1.44-4.22a11.28,11.28,0,0,1,6.29,1.48c1,.55-.85,1.73-1.15,2.74A9,9,0,0,1,400.93,346Z" transform="translate(-222.23 -317.54)"/><path class="cls-20" d="M423,332.69c-2.68-.45-5,.27-4.95-2.28a2.35,2.35,0,0,1,3.08-2.41c1.55.37,3.64,0,3.75,2.5C425,332.84,423.53,332.81,423,332.69Z" transform="translate(-222.23 -317.54)"/><path class="cls-21" d="M454.72,331.07c-2.81.25-5.46,3.19-7-1-.3-.78-1.75-1.5.24-2.46C451.56,325.86,453.05,327.84,454.72,331.07Z" transform="translate(-222.23 -317.54)"/><path class="cls-7" d="M411.3,370.17c1,2.6-.85,1.95-1.71,2.1-2.33.42-4.36-.26-4.77-2.76-.31-1.93,1.68-1.6,2.85-1.8C409.93,367.33,411.5,368,411.3,370.17Z" transform="translate(-222.23 -317.54)"/><path class="cls-6" d="M444.59,364.17c-.46,1.54-.7,3.44-2.55,3.26-1.4-.14-3.6-.22-3.55-2.62,0-1.36.51-2.75,2.12-2.8S443.91,362.38,444.59,364.17Z" transform="translate(-222.23 -317.54)"/><path class="cls-22" d="M398.5,326.25c2.29-2.63,4.18-4.77,7.7-2.34C404.59,327.47,402.47,329.07,398.5,326.25Z" transform="translate(-222.23 -317.54)"/><path class="cls-23" d="M446.72,339.34c.36,2-.89,2.09-2.34,2.22-2,.18-3.26-.41-3.47-2.63-.17-1.9.94-2.09,2.42-2.2C445.34,336.58,446.7,337.07,446.72,339.34Z" transform="translate(-222.23 -317.54)"/><path class="cls-24" d="M415.36,326.9c-1,4.14-3.28,3.89-5.84,3-1-.37-1.5-1-.92-2.13C410.52,324,413,326.43,415.36,326.9Z" transform="translate(-222.23 -317.54)"/><path class="cls-25" d="M431.86,369.65c-.74,2.51-2.26,2.83-4.07,2.63s-3.48-.09-3.14-2.69c.23-1.8,1.26-2.15,2.66-1.53S431,367.92,431.86,369.65Z" transform="translate(-222.23 -317.54)"/><path class="cls-26" d="M416.83,379.59c-3.6,1.24-5.35-.36-6.66-2.57-.46-.77.31-1.23,1.13-1.42C414.57,374.84,415.43,377.25,416.83,379.59Z" transform="translate(-222.23 -317.54)"/><path class="cls-27" d="M442.3,376.16c1.41-2.11,2.34-5,5.93-3,.95.53,1.65.94.89,2C447.25,377.89,445,378,442.3,376.16Z" transform="translate(-222.23 -317.54)"/><path class="cls-28" d="M444.82,350.84c-2.37.18-3.55-.79-3.11-3.28s2.23-2.73,4.24-2.66c2.83.09,1.8,2.31,2,3.76C448.22,351.09,446.88,351.54,444.82,350.84Z" transform="translate(-222.23 -317.54)"/><path class="cls-29" d="M437.52,369.89c1,.36,3,.11,2.65,1.92a3.18,3.18,0,0,1-3.18,2.7c-1.22,0-2.68-.53-2.48-1.71S435.41,369.83,437.52,369.89Z" transform="translate(-222.23 -317.54)"/><path class="cls-30" d="M415.67,371.1c-1.45-.57-1.44-2.47-.9-2.72,2.1-1,4.46-1.74,6.48.4C420.52,372.24,418.28,372.1,415.67,371.1Z" transform="translate(-222.23 -317.54)"/><path class="cls-8" d="M394.93,369.47c4.51-1.63,6,.45,6.86,3.56C397.93,374.93,397.11,371.63,394.93,369.47Z" transform="translate(-222.23 -317.54)"/><path class="cls-31" d="M407.83,354c-.8,2-2.54.94-3.86,1.14-1.66.25-3.28.43-3.39-2.19s1.37-2.58,3.16-2.43l2.77.23C406,352.2,406.13,353.42,407.83,354Z" transform="translate(-222.23 -317.54)"/><path class="cls-27" d="M420.32,321.3c-.81,1.54-1.92,2.42-3.68,2-.89-.19-2.17-.35-1.5-1.64a3.3,3.3,0,0,1,3.28-1.83C419.43,319.91,420.28,320.13,420.32,321.3Z" transform="translate(-222.23 -317.54)"/><path class="cls-32" d="M448.07,323.61c-2.06,1.88-3.72,2.18-5.34,0-.49-.66-1-1.4-.19-1.87C445.1,320.22,446.15,322.81,448.07,323.61Z" transform="translate(-222.23 -317.54)"/><path class="cls-13" d="M434.94,377.16c-1.52,2.17-3.17,3.82-6.35,2.7C430,377.27,431.79,375.82,434.94,377.16Z" transform="translate(-222.23 -317.54)"/><path class="cls-3" d="M407.83,354c-1.72-.29-3.68.68-5.26-.88.5-2.25,3.18-.73,3.94-2.37C409,351,408,352.68,407.83,354Z" transform="translate(-222.23 -317.54)"/><path class="cls-33" d="M434.8,382.7c2.23-3,3.88-4.59,7.12-3.39C440.41,381.59,438.21,381.9,434.8,382.7Z" transform="translate(-222.23 -317.54)"/><path class="cls-34" d="M439.89,332.33c-.59-1-2.3-2.11-.6-3.13s3.1.29,4,1.82C443.18,334.05,441.4,332.84,439.89,332.33Z" transform="translate(-222.23 -317.54)"/><path class="cls-35" d="M432,324.45c.22.94-.24,1.4-1.12,1.35-1-.05-2.41.34-2.47-1.38,0-.95.21-2.08,1.31-2.12C431,322.25,431.59,323.39,432,324.45Z" transform="translate(-222.23 -317.54)"/><path class="cls-36" d="M413.21,317.54c-1.77,3.13-3.17,4.12-5.64,3.11C408.21,318.31,410.23,318.41,413.21,317.54Z" transform="translate(-222.23 -317.54)"/><path class="cls-37" d="M439.51,325.32c-2.6,1-3.62-.21-4.28-1.87-.11-.28.36-1.15.59-1.16C437.82,322.19,438.62,323.66,439.51,325.32Z" transform="translate(-222.23 -317.54)"/><path class="cls-38" d="M415.67,371.1c2.13-.13,4.34-.07,5.58-2.32C421.18,373.79,418.1,371.68,415.67,371.1Z" transform="translate(-222.23 -317.54)"/><path class="cls-39" d="M434.93,363.05l-4.9-1.88,3.22-.52C435,360.63,435.72,361.32,434.93,363.05Z" transform="translate(-222.23 -317.54)"/><path class="cls-40" d="M400.93,346h6.58C405.32,348.61,403.12,347.91,400.93,346Z" transform="translate(-222.23 -317.54)"/><path class="cls-41" d="M439.89,332.33c1.27-.1,2.67.1,3.44-1.31.87.59,1.31,1.52.17,1.93S440.78,334.23,439.89,332.33Z" transform="translate(-222.23 -317.54)"/><path class="cls-42" d="M389.41,349.6l-.15,5.84C388.37,353.47,387.57,351.5,389.41,349.6Z" transform="translate(-222.23 -317.54)"/><path class="cls-43" d="M332.3,347.23c-1.93,13.16-3.85,25.79-5.55,38.44-.31,2.32-1.33,2.66-3.31,2.65q-18.57-.09-37.13,0c-6.29,0-3.6-4.64-2.9-6.81,2.69-8.39,7.1-15.73,14.74-20.88C308.34,353.72,319.68,350,332.3,347.23Z" transform="translate(-222.23 -317.54)"/><path class="cls-44" d="M445.18,349.23c-.76,0-1.65-.13-1.47-1.1A2.4,2.4,0,0,1,445,346.6c.75-.31,1.42.17,1.42,1.09A1.37,1.37,0,0,1,445.18,349.23Z" transform="translate(-222.23 -317.54)"/></svg>